<?xml version="1.0" standalone="no"?>
<!DOCTYPE svg PUBLIC "-//W3C//DTD SVG 20010904//EN"
 "http://www.w3.org/TR/2001/REC-SVG-20010904/DTD/svg10.dtd">
<svg version="1.0" xmlns="http://www.w3.org/2000/svg"
 width="120.000000pt" height="120.000000pt" viewBox="0 0 120.000000 120.000000"
 preserveAspectRatio="xMidYMid meet">
<metadata>
Created by potrace 1.11, written by Peter Selinger 2001-2013
</metadata>
<g transform="translate(0.000000,120.000000) scale(0.100000,-0.100000)"
fill="#000000" stroke="none">
<path d="M470 1190 c-8 -5 -17 -7 -22 -4 -4 3 -15 1 -25 -5 -10 -5 -52 -25
-93 -44 -89 -42 -170 -112 -225 -193 -22 -33 -44 -62 -50 -66 -5 -4 -7 -8 -2
-8 4 0 1 -13 -8 -30 -9 -16 -13 -30 -9 -30 4 0 1 -6 -5 -14 -7 -8 -13 -30 -14
-49 -1 -19 -5 -33 -9 -30 -5 2 -8 -50 -8 -117 0 -67 3 -119 8 -117 4 3 8 -11
9 -30 1 -19 7 -41 14 -49 6 -8 9 -14 5 -14 -8 0 49 -113 72 -142 58 -75 197
-191 232 -193 3 -1 15 -6 28 -13 12 -7 22 -10 22 -6 0 3 6 2 13 -3 26 -21 112
-34 218 -32 60 0 107 4 105 8 -3 4 3 7 12 8 45 3 62 8 62 17 0 5 3 7 6 3 4 -3
19 0 35 9 16 8 29 11 29 7 0 -5 4 -3 8 3 4 5 25 21 46 34 88 53 178 157 221
253 32 73 38 89 43 112 9 44 13 267 5 262 -5 -3 -8 10 -8 29 1 19 -2 34 -7 34
-4 0 -8 6 -8 13 0 16 -53 126 -76 157 -58 76 -149 152 -230 191 -47 23 -97 42
-110 42 -13 0 -24 3 -24 8 0 10 -242 10 -260 -1z m110 -204 c0 -96 -3 -177 -8
-180 -4 -2 -30 0 -57 5 -28 6 -62 12 -77 14 -59 8 -70 15 -63 42 9 39 39 103
47 103 5 0 8 5 8 11 0 22 124 179 142 179 4 0 8 -78 8 -174z m95 129 c23 -25
61 -73 83 -108 41 -62 88 -168 74 -165 -4 0 -14 -2 -22 -6 -24 -10 -164 -33
-178 -28 -9 3 -12 51 -12 178 0 96 3 174 6 174 3 0 25 -20 49 -45z m-185 25
c0 -3 -13 -19 -30 -35 -16 -16 -30 -35 -30 -42 0 -7 -4 -13 -9 -13 -5 0 -28
-39 -52 -87 -44 -88 -59 -108 -69 -95 -3 4 -17 13 -32 21 -15 7 -41 29 -59 47
l-32 33 47 45 c25 25 61 53 79 62 17 9 35 22 39 28 4 6 8 8 8 4 0 -4 12 -1 27
7 15 8 30 12 35 9 4 -3 8 -1 8 5 0 5 10 11 23 13 35 6 47 5 47 -2z m281 -7
c30 -9 56 -17 59 -17 15 -2 111 -68 147 -101 l42 -38 -16 -28 c-10 -16 -23
-29 -30 -29 -7 0 -13 -4 -13 -8 0 -5 -18 -18 -39 -29 -36 -19 -41 -20 -53 -6
-7 9 -11 18 -9 20 6 7 -71 153 -80 153 -5 0 -9 6 -9 13 0 7 -8 20 -17 28 -28
25 -54 59 -45 59 5 0 33 -8 63 -17z m-598 -217 c9 -7 17 -17 17 -22 0 -5 27
-24 60 -43 56 -32 59 -36 53 -65 -3 -17 -10 -37 -16 -43 -6 -9 -6 -13 3 -13 9
0 9 -4 -1 -17 -8 -9 -13 -18 -11 -20 1 -1 2 -19 2 -38 l0 -35 -120 0 c-117 0
-120 1 -120 22 0 32 23 138 30 138 3 0 6 10 7 21 1 12 13 38 26 58 13 20 26
44 30 54 8 20 16 21 40 3z m898 -8 c10 -13 18 -28 19 -35 0 -6 4 -13 8 -15 12
-5 53 -136 59 -190 l6 -48 -122 0 -121 0 -1 33 c0 17 -2 41 -4 52 -3 11 -8 42
-13 68 l-10 48 41 20 c22 12 49 29 60 40 12 10 24 19 29 19 4 0 8 7 8 15 0 22
19 18 41 -7z m-676 -119 c6 -3 20 -4 33 -3 12 0 22 -2 22 -5 0 -7 22 -11 85
-14 l40 -2 3 -72 3 -73 -131 0 -130 0 3 55 c1 30 5 55 10 55 4 0 7 13 7 28 0
16 3 32 6 35 7 7 33 5 49 -4z m461 -4 c4 -8 7 -26 8 -40 0 -14 3 -25 6 -25 3
0 6 -23 8 -50 l2 -50 -130 0 -131 0 3 73 3 72 70 7 c39 4 84 12 100 17 44 14
55 13 61 -4z m-575 -232 c0 -16 2 -37 4 -48 2 -11 6 -40 9 -64 4 -24 9 -48 12
-52 2 -5 -14 -18 -37 -30 -23 -11 -51 -29 -62 -40 -12 -10 -24 -19 -29 -19 -4
0 -8 -7 -8 -15 0 -17 -2 -18 -24 -9 -9 3 -16 12 -16 20 0 8 -5 14 -11 14 -5 0
-8 4 -5 9 3 5 -1 12 -10 15 -8 3 -12 11 -8 17 3 6 1 15 -5 19 -14 8 -51 140
-51 182 l0 28 120 0 120 0 1 -27z m299 -46 l0 -74 -55 -2 c-30 -1 -66 -6 -80
-11 -14 -5 -29 -9 -33 -9 -4 1 -9 1 -12 -1 -24 -9 -51 -8 -55 3 -7 20 -16 69
-21 120 l-5 47 130 0 131 0 0 -73z m296 26 c-3 -27 -8 -61 -12 -78 -3 -16 -7
-36 -7 -43 0 -12 -40 -11 -78 2 -25 9 -73 17 -114 19 l-40 2 -3 73 -3 72 131
0 132 0 -6 -47z m284 6 c0 -22 -4 -38 -8 -35 -4 2 -7 -7 -6 -22 1 -31 -30
-116 -57 -153 -10 -15 -19 -32 -19 -37 0 -26 -24 -21 -60 12 -21 19 -57 44
-78 55 -35 18 -38 23 -34 53 2 18 9 39 14 46 7 8 7 12 -1 12 -7 0 -9 5 -4 13
10 15 10 18 12 62 l1 35 120 0 120 0 0 -41z m-580 -325 c0 -96 -3 -174 -6
-174 -13 0 -87 87 -125 145 -21 33 -42 65 -46 70 -5 6 -9 15 -10 20 -1 6 -9
28 -18 50 -10 22 -14 37 -9 33 4 -4 12 -4 18 1 10 9 37 15 116 28 19 3 36 6
38 8 2 2 12 1 23 -2 18 -5 19 -15 19 -179z m125 171 c104 -15 121 -21 129 -40
3 -8 2 -15 -3 -15 -5 0 -12 -12 -16 -27 -14 -58 -161 -263 -189 -263 -3 0 -6
78 -6 174 0 174 3 190 35 180 6 -2 28 -6 50 -9z m-370 -73 c0 -27 85 -173 130
-224 14 -15 20 -30 15 -33 -12 -7 -128 37 -176 68 -22 13 -58 41 -81 62 l-42
38 16 28 c10 16 23 29 29 29 7 0 14 4 16 9 6 17 73 49 83 39 6 -5 10 -12 10
-16z m595 -4 c0 -5 6 -8 13 -8 7 0 28 -15 46 -34 l33 -34 -38 -41 c-22 -23
-45 -41 -51 -41 -7 0 -13 -4 -13 -8 0 -10 -135 -77 -172 -86 -34 -8 -35 3 -5
41 41 51 76 107 103 168 15 33 32 63 37 67 11 7 47 -12 47 -24z"/>
</g>
</svg>
