<?xml version="1.0" standalone="no"?>
<!DOCTYPE svg PUBLIC "-//W3C//DTD SVG 20010904//EN"
 "http://www.w3.org/TR/2001/REC-SVG-20010904/DTD/svg10.dtd">
<svg version="1.0" xmlns="http://www.w3.org/2000/svg"
 width="260.000000pt" height="260.000000pt" viewBox="0 0 260.000000 260.000000"
 preserveAspectRatio="xMidYMid meet">
<metadata>
Created by potrace 1.11, written by Peter Selinger 2001-2013
</metadata>
<g transform="translate(0.000000,260.000000) scale(0.100000,-0.100000)"
fill="#000000" stroke="none">
<path d="M1027 2582 c4 -10 2 -13 -5 -8 -7 4 -12 2 -12 -5 0 -9 -3 -9 -14 0
-10 9 -16 9 -21 1 -4 -6 -13 -9 -21 -6 -8 3 -14 1 -14 -3 0 -5 -9 -7 -20 -4
-13 3 -22 -1 -26 -12 -5 -13 -9 -14 -15 -3 -7 10 -9 10 -9 -2 0 -9 -9 -17 -20
-18 -43 -4 -50 -6 -50 -13 0 -4 -7 -10 -16 -13 -15 -6 -15 -4 -3 10 13 16 12
16 -8 4 -12 -8 -19 -18 -16 -24 4 -5 -3 -7 -15 -4 -12 4 -20 3 -17 -2 3 -4 -2
-11 -11 -14 -10 -4 -13 -2 -8 7 5 8 2 8 -9 -2 -9 -7 -14 -17 -12 -22 3 -4 -4
-6 -15 -4 -11 2 -20 -1 -20 -7 0 -5 -7 -7 -16 -4 -8 3 -12 2 -9 -4 3 -6 -5
-14 -19 -20 -14 -5 -26 -14 -26 -20 0 -5 -7 -10 -16 -10 -8 0 -12 -4 -9 -10 3
-6 -1 -7 -9 -4 -9 3 -16 1 -16 -6 0 -6 -5 -8 -10 -5 -6 4 -9 1 -8 -7 2 -7 -5
-12 -14 -12 -10 1 -16 -2 -13 -6 5 -8 -24 -24 -37 -22 -4 1 -4 -6 -1 -15 4
-11 3 -14 -5 -9 -7 4 -12 2 -12 -4 0 -6 -5 -8 -12 -4 -6 4 -8 3 -5 -3 7 -11
-18 -36 -45 -46 -12 -4 -15 -12 -11 -23 4 -11 3 -15 -5 -10 -13 8 -35 -27 -24
-39 4 -5 2 -5 -5 -1 -6 3 -14 2 -18 -4 -4 -6 -11 -7 -17 -4 -7 4 -8 2 -4 -5 4
-6 0 -18 -8 -27 -9 -9 -14 -20 -11 -25 4 -5 -2 -6 -11 -2 -11 4 -15 3 -11 -4
4 -6 1 -14 -5 -16 -10 -4 -10 -6 0 -6 7 -1 11 -5 7 -11 -3 -5 -12 -7 -19 -4
-8 3 -17 0 -22 -7 -4 -7 -3 -10 4 -6 6 5 6 -2 -1 -18 -7 -14 -15 -25 -19 -25
-5 0 -8 -5 -8 -11 0 -7 -8 -18 -17 -26 -10 -8 -12 -11 -4 -8 9 5 8 -1 -4 -19
-9 -14 -22 -23 -28 -19 -6 3 -7 1 -3 -6 10 -16 -3 -53 -16 -45 -6 4 -6 -2 1
-15 10 -18 9 -20 -5 -14 -12 4 -15 3 -10 -5 4 -7 2 -12 -4 -12 -6 0 -9 -4 -5
-9 3 -5 1 -13 -5 -16 -8 -5 -8 -11 -1 -19 13 -15 -15 -60 -31 -50 -6 4 -6 -1
1 -14 8 -15 8 -21 0 -24 -6 -2 -12 -27 -13 -56 0 -29 -5 -52 -9 -52 -5 0 -5
-4 -2 -10 3 -5 1 -10 -5 -10 -13 0 -9 31 5 43 6 5 4 7 -5 4 -13 -3 -15 -45
-17 -285 -2 -277 -1 -287 28 -284 3 1 5 -14 4 -31 -1 -18 3 -38 9 -46 9 -12 8
-13 -4 -6 -12 6 -13 5 -2 -6 6 -7 12 -21 12 -32 0 -10 4 -15 10 -12 6 3 7 -1
4 -9 -3 -9 -2 -16 3 -16 5 0 8 -13 7 -30 -1 -16 2 -28 6 -25 4 3 11 -2 14 -11
4 -10 2 -13 -7 -9 -6 4 -2 -2 11 -12 15 -12 21 -25 16 -36 -4 -10 -1 -17 6
-17 7 0 10 -6 7 -14 -3 -7 4 -21 14 -30 11 -9 17 -21 14 -26 -3 -6 -1 -10 5
-10 6 0 9 -4 6 -9 -3 -5 3 -11 14 -14 13 -3 18 -10 14 -21 -3 -9 -1 -16 5 -16
6 0 11 -7 11 -16 0 -8 4 -13 9 -10 5 3 12 -1 15 -10 4 -10 2 -13 -7 -9 -6 4
-4 0 6 -8 9 -8 17 -19 17 -25 0 -6 12 -20 27 -32 16 -12 21 -18 13 -14 -13 7
-13 5 -1 -9 7 -9 17 -14 22 -11 5 3 8 1 7 -4 -3 -10 57 -72 69 -72 5 0 16 -14
25 -31 10 -17 22 -27 28 -24 5 3 10 -1 10 -9 0 -13 35 -33 52 -28 4 1 5 -4 3
-11 -3 -6 8 -18 25 -25 17 -8 27 -18 24 -24 -4 -6 -2 -8 4 -4 6 3 17 0 25 -8
8 -8 17 -12 21 -9 3 4 6 1 6 -6 0 -7 5 -9 12 -5 8 5 9 2 4 -12 -4 -10 -4 -15
0 -11 4 4 14 1 22 -6 11 -8 13 -8 9 0 -5 8 -1 8 17 0 14 -7 23 -14 20 -16 -2
-2 4 -10 14 -17 11 -8 21 -9 29 -2 9 7 20 2 38 -18 15 -17 38 -29 53 -30 47
-2 53 -4 47 -14 -4 -6 6 -10 22 -10 16 0 35 -6 42 -12 11 -11 12 -10 6 2 -7
12 -6 13 6 4 8 -6 22 -10 32 -9 10 2 21 -4 24 -13 6 -13 8 -13 14 4 7 18 8 18
8 -2 1 -21 5 -21 262 -23 207 -1 259 1 253 11 -6 10 -4 10 9 0 13 -12 18 -11
28 6 7 12 19 18 27 14 11 -4 13 -1 7 8 -6 10 -4 11 6 4 21 -13 39 -14 39 -1 0
5 3 7 7 4 3 -4 17 0 31 9 13 9 21 11 18 5 -4 -6 -2 -11 3 -11 6 0 11 6 11 14
0 8 9 12 25 11 14 -2 25 0 25 5 0 4 11 6 25 5 14 -2 23 1 19 6 -3 5 -10 6 -16
3 -7 -4 -8 -2 -4 5 4 6 12 9 17 6 5 -4 9 -1 9 6 0 7 3 9 7 6 3 -4 13 -1 21 6
13 10 14 9 7 -3 -7 -12 -6 -13 7 -3 8 7 18 10 21 6 4 -3 7 1 7 9 0 22 60 43
73 26 6 -9 7 -8 3 4 -4 13 3 22 23 33 16 8 32 11 36 7 5 -4 5 -1 1 5 -4 7 -2
13 4 13 6 0 8 5 4 12 -4 7 -3 8 4 4 7 -4 23 5 38 21 14 15 23 23 20 16 -4 -6
-1 -15 5 -19 7 -4 9 -3 5 4 -3 5 6 20 21 32 16 12 22 18 14 14 -10 -5 -12 -3
-7 5 5 7 14 10 22 7 9 -3 17 2 21 12 10 27 35 52 46 45 5 -3 7 -1 4 4 -8 13
27 46 38 36 4 -5 5 -3 2 4 -4 6 5 21 20 33 16 12 21 19 13 15 -9 -4 -7 0 4 9
10 8 15 19 12 25 -4 6 2 8 13 6 13 -2 18 1 15 10 -3 7 0 16 5 20 6 3 9 11 6
16 -3 5 2 6 11 2 12 -4 15 -3 10 5 -4 8 0 12 11 12 14 0 15 2 5 9 -11 7 -11
11 2 23 8 9 12 19 8 23 -4 5 0 6 9 2 12 -4 16 0 15 16 0 12 4 21 11 20 6 -1
10 5 8 15 -4 24 6 37 16 21 6 -10 8 -5 5 13 -3 16 -1 28 4 28 5 0 7 9 5 19 -3
15 1 18 12 14 11 -4 14 -2 9 5 -4 7 -3 12 1 12 5 0 10 12 11 28 1 15 7 29 13
30 6 3 5 10 -3 20 -11 13 -10 15 4 9 13 -4 15 -2 11 10 -4 10 -2 14 4 10 6 -4
9 3 7 18 -1 14 1 25 5 25 4 0 7 14 6 30 -1 22 2 29 11 26 8 -3 11 0 7 9 -3 8
-9 13 -13 10 -5 -3 -6 5 -3 16 6 21 6 21 19 -2 10 -20 12 24 13 256 0 164 -4
287 -10 295 -7 11 -8 8 -5 -12 3 -15 2 -30 -2 -32 -6 -4 -11 26 -15 97 -1 15
-6 27 -11 27 -4 0 -6 7 -2 15 3 8 0 15 -6 15 -7 0 -6 5 2 15 7 9 10 18 6 22
-3 3 -6 1 -6 -5 0 -7 -5 -12 -11 -12 -5 0 -8 4 -4 9 3 5 -2 17 -11 25 -8 9
-11 16 -6 16 5 0 9 7 9 15 0 8 -4 12 -8 10 -4 -3 -10 2 -13 11 -3 8 -2 12 4 9
6 -3 7 1 4 10 -4 9 -12 14 -19 11 -8 -3 -12 2 -10 12 1 9 -3 20 -9 24 -7 5 -6
8 3 8 11 0 10 4 -5 16 -10 8 -12 13 -4 9 13 -6 13 -5 0 7 -25 21 -47 53 -32
44 11 -7 12 -4 2 13 -6 12 -16 18 -22 15 -7 -4 -8 -3 -4 4 4 7 2 12 -4 12 -6
0 -8 5 -5 10 3 6 1 10 -6 10 -7 0 -10 3 -6 6 3 3 -10 22 -30 42 -21 21 -28 32
-17 28 15 -5 13 -1 -6 17 -14 14 -28 23 -32 20 -4 -2 -5 3 -2 11 3 9 1 16 -4
16 -6 0 -13 9 -17 20 -3 11 -9 19 -13 19 -18 -3 -35 2 -29 7 8 8 -18 34 -33
34 -6 0 -8 5 -5 10 3 6 -2 10 -12 10 -14 0 -15 2 -5 9 10 6 7 10 -12 15 -15 4
-24 11 -21 16 3 6 1 10 -5 10 -6 0 -8 5 -5 10 3 6 1 10 -4 10 -6 0 -11 -6 -11
-12 -1 -7 -6 -3 -13 10 -7 12 -17 19 -22 15 -4 -4 -6 -1 -3 7 4 11 -1 16 -15
17 -21 2 -39 22 -31 35 3 4 -2 5 -11 1 -10 -3 -20 -1 -24 4 -9 16 -79 53 -98
53 -9 0 -13 3 -10 7 12 12 -27 32 -40 21 -10 -8 -13 -6 -13 6 0 10 -4 14 -10
11 -5 -3 -10 -1 -10 5 0 6 -4 9 -9 5 -5 -3 -17 2 -25 11 -9 8 -16 10 -16 4 0
-6 -10 -2 -22 9 -16 16 -25 18 -35 10 -9 -8 -13 -8 -13 -1 0 14 -35 25 -89 27
-29 1 -46 7 -53 18 -8 15 -36 17 -278 16 -239 -1 -268 -3 -263 -17z m718 -52
c3 -5 1 -10 -4 -10 -6 0 -11 5 -11 10 0 6 2 10 4 10 3 0 8 -4 11 -10z m-521
-22 c-6 -10 -4 -10 8 0 21 17 26 7 23 -50 -1 -27 2 -48 7 -48 5 0 6 -5 2 -11
-10 -17 -12 -109 -2 -109 5 0 6 -5 2 -11 -10 -17 -12 -109 -2 -109 5 0 6 -5 2
-11 -10 -17 -12 -109 -2 -109 5 0 6 -5 2 -11 -10 -17 -12 -109 -2 -109 5 0 6
-5 2 -11 -10 -16 -12 -109 -2 -109 4 0 8 -5 8 -11 0 -5 -5 -7 -12 -3 -6 4 -8
3 -5 -4 9 -14 -3 -43 -14 -36 -5 3 -9 2 -9 -3 0 -4 -22 -8 -49 -8 -29 0 -47 4
-44 10 2 6 -5 11 -16 11 -11 0 -17 -4 -15 -8 8 -13 -11 -9 -25 5 -8 6 -11 7
-8 1 3 -6 0 -11 -8 -11 -8 0 -12 4 -9 9 3 5 -6 7 -20 4 -17 -3 -23 0 -20 8 3
7 -4 12 -15 12 -11 0 -17 -4 -15 -8 3 -4 0 -8 -5 -8 -6 0 -11 4 -11 9 0 6 -8
10 -17 10 -63 -1 -94 5 -89 18 3 8 2 11 -3 8 -5 -3 -12 -1 -16 5 -4 7 -12 7
-25 0 -16 -9 -18 -8 -13 6 3 10 2 15 -3 12 -5 -3 -15 0 -21 7 -10 11 -9 15 7
20 23 7 26 21 8 28 -8 4 -7 6 4 6 9 1 15 8 14 18 -2 9 6 25 16 35 10 10 16 23
13 28 -4 6 -1 10 5 10 7 0 10 7 6 15 -3 8 -1 15 4 15 5 0 6 7 3 17 -4 11 -3
14 5 9 7 -4 12 -2 12 4 0 6 6 8 13 4 9 -5 9 -4 0 6 -10 11 -9 16 5 27 11 10
12 12 2 8 -8 -4 -4 3 10 16 14 13 26 35 28 49 1 14 13 33 25 42 12 9 22 23 22
30 1 7 7 12 14 10 9 -2 11 3 7 14 -4 11 -2 15 8 11 10 -4 14 0 11 14 -3 12 2
19 12 19 10 0 13 5 9 17 -4 10 -4 14 0 10 8 -8 44 21 44 35 0 6 26 35 59 66
32 32 61 65 64 75 4 9 9 17 12 17 4 0 3 -6 -1 -12z m157 -2 c5 3 9 -1 9 -9 0
-8 8 -21 17 -28 15 -12 16 -12 8 1 -5 9 -5 12 1 7 5 -5 9 -12 9 -16 0 -12 32
-40 39 -34 3 4 6 -1 6 -11 0 -9 7 -19 15 -22 8 -3 17 -14 20 -25 4 -10 13 -19
22 -19 9 0 13 -6 9 -15 -4 -10 5 -22 24 -34 23 -14 27 -20 17 -30 -9 -10 -9
-12 3 -9 9 2 14 -3 12 -12 -2 -8 -1 -12 3 -8 4 4 14 1 21 -7 17 -17 18 -29 2
-19 -7 4 -4 -2 6 -14 11 -12 26 -22 35 -23 9 0 11 -3 4 -5 -16 -7 17 -64 37
-65 11 0 12 -2 2 -6 -10 -4 -9 -9 5 -20 10 -8 12 -12 6 -8 -9 4 -11 1 -7 -9 3
-9 10 -13 15 -10 5 3 9 -4 9 -15 0 -11 5 -23 12 -27 7 -5 8 -3 3 6 -5 9 -4 11
4 6 9 -6 9 -11 0 -22 -8 -10 -8 -14 -1 -14 7 0 9 -7 5 -17 -5 -13 -2 -15 11
-10 9 4 15 3 11 -2 -3 -5 -1 -12 4 -15 5 -3 7 -16 3 -28 -3 -13 -1 -19 6 -15
6 4 9 0 8 -10 -3 -19 15 -43 26 -36 4 2 5 -3 2 -12 -4 -9 -9 -14 -11 -11 -3 3
-12 -2 -20 -10 -16 -16 -37 -9 -27 8 4 6 2 8 -4 5 -5 -4 -8 -17 -5 -30 4 -20
3 -20 -7 -4 -11 17 -13 17 -29 2 -10 -8 -39 -16 -65 -18 -32 -1 -45 -6 -42
-14 3 -7 -1 -10 -10 -6 -7 3 -14 9 -14 15 0 5 -5 6 -10 3 -6 -4 -8 -10 -5 -15
3 -5 0 -12 -6 -16 -7 -4 -9 -3 -6 3 7 11 -22 28 -31 18 -3 -3 0 -5 7 -5 7 0 9
-5 6 -10 -5 -8 -11 -7 -21 1 -10 8 -14 8 -14 0 0 -6 -5 -11 -11 -11 -5 0 -7 6
-3 13 5 8 2 8 -9 -2 -14 -11 -17 -11 -17 0 0 10 -3 10 -8 3 -8 -14 -92 -23
-92 -11 0 5 -7 6 -16 3 -8 -3 -12 -2 -9 4 3 6 1 10 -5 10 -8 0 -8 6 0 20 8 15
8 20 -2 20 -10 0 -10 2 0 9 8 4 14 12 14 16 0 4 -6 12 -14 16 -8 6 -9 9 -1 9
6 0 10 8 8 18 -2 9 -4 17 -5 17 -1 0 -3 10 -4 22 -1 12 0 20 3 18 4 -2 6 23 6
56 0 32 -4 59 -10 59 -5 0 -4 4 3 9 8 4 14 12 14 16 0 4 -6 12 -14 16 -8 6 -9
9 -1 9 6 0 10 8 8 18 -2 9 -4 17 -5 17 -1 0 -3 10 -4 22 -1 12 0 20 3 18 4 -2
6 23 6 56 0 32 -4 59 -10 59 -5 0 -4 4 3 9 8 4 14 12 14 16 0 4 -6 12 -14 16
-8 6 -9 9 -1 9 6 0 10 8 8 18 -2 9 -4 17 -5 17 -1 0 -3 10 -4 22 -1 12 0 20 4
18 9 -5 6 67 -3 82 -4 7 0 13 10 15 10 2 20 0 21 -4 2 -5 8 -6 13 -2z m185
-16 c10 0 12 -5 8 -12 -5 -8 -1 -8 10 1 14 12 19 12 25 2 5 -7 11 -12 15 -12
27 4 56 -1 52 -8 -3 -5 1 -12 10 -15 8 -3 12 -2 9 3 -3 5 0 13 6 17 8 4 9 3 5
-4 -4 -7 -2 -12 4 -12 6 0 9 -4 5 -9 -3 -6 6 -8 21 -5 14 3 23 1 20 -5 -4 -5
3 -7 16 -3 18 4 20 2 15 -18 -4 -17 -3 -20 6 -11 14 14 41 15 32 1 -6 -9 25
-15 50 -10 5 1 7 -1 3 -5 -10 -10 19 -38 31 -30 5 3 12 1 16 -5 4 -6 11 -8 16
-5 5 4 9 0 9 -8 0 -8 11 -22 25 -31 23 -15 24 -15 19 1 -5 17 -5 17 6 0 6 -9
8 -23 4 -30 -5 -8 -2 -7 9 2 15 12 17 11 17 -4 0 -12 6 -16 20 -12 11 3 18 2
16 -2 -6 -9 5 -24 29 -38 11 -6 19 -16 17 -23 -1 -6 2 -9 8 -5 5 3 10 1 10 -5
0 -6 5 -8 10 -5 6 3 10 -3 10 -14 0 -19 10 -26 33 -22 4 0 7 -8 7 -18 0 -11 6
-22 13 -24 9 -4 9 -7 -1 -15 -7 -5 -14 -18 -15 -29 0 -12 -6 -19 -13 -16 -14
5 -37 -31 -26 -41 3 -4 -1 -4 -10 -1 -9 4 -25 -3 -40 -17 -15 -14 -16 -17 -3
-8 20 15 20 15 1 -7 -10 -12 -21 -21 -25 -21 -16 4 -51 -15 -51 -28 0 -8 -4
-12 -10 -9 -5 3 -10 1 -10 -5 0 -6 -5 -8 -10 -5 -14 9 -62 -23 -55 -35 10 -16
-28 2 -48 22 -11 11 -13 18 -5 18 9 0 9 3 0 12 -7 7 -12 20 -12 30 0 10 -4 18
-10 18 -5 0 -10 7 -10 15 0 8 -6 15 -12 15 -9 0 -8 4 2 10 12 8 12 10 -5 10
-11 0 -15 4 -10 8 6 4 11 15 11 25 1 13 -1 15 -10 8 -9 -8 -16 -1 -26 24 -7
18 -13 37 -13 42 0 4 -8 14 -19 21 -10 8 -17 19 -15 25 2 6 -4 18 -13 27 -9 8
-10 11 -3 6 8 -5 13 -4 13 2 0 6 -9 14 -20 17 -11 3 -20 11 -20 16 0 19 -3 24
-21 37 -11 7 -19 19 -19 26 0 8 -10 21 -22 30 -13 9 -16 14 -8 11 12 -5 12 -4
-1 7 -9 7 -14 19 -11 27 3 8 0 11 -7 7 -6 -4 -14 0 -17 8 -3 9 -14 16 -23 16
-14 0 -14 2 -1 10 13 8 12 10 -2 10 -10 0 -18 7 -18 16 0 8 -4 13 -9 10 -5 -4
-7 4 -4 16 4 19 3 20 -6 8 -12 -17 -14 -10 -4 16 4 11 8 13 11 6 2 -7 10 -12
18 -12z m-478 5 c-8 -8 -58 -13 -58 -6 0 4 14 8 31 9 17 0 29 -1 27 -3z m-45
-21 c4 -1 10 -2 14 -3 3 0 -4 -9 -15 -20 -12 -10 -19 -21 -15 -25 3 -3 0 -6
-7 -6 -7 0 -10 -3 -7 -7 4 -3 -3 -11 -16 -18 -12 -6 -21 -17 -19 -23 1 -7 -3
-12 -9 -12 -5 0 -7 -5 -4 -11 4 -6 -2 -13 -14 -16 -11 -3 -19 -9 -16 -13 3 -5
1 -11 -5 -15 -6 -4 -7 -11 -4 -17 4 -7 2 -8 -4 -4 -7 4 -12 2 -12 -4 0 -6 -5
-8 -10 -5 -6 4 -10 3 -9 -2 5 -26 -4 -45 -23 -53 -13 -5 -18 -9 -12 -9 16 -1
-17 -69 -37 -76 -9 -3 -15 -15 -14 -27 2 -21 -24 -58 -37 -51 -3 1 -4 -6 -1
-17 3 -13 0 -20 -8 -20 -11 0 -11 -2 1 -10 9 -6 11 -10 3 -10 -7 0 -10 -7 -6
-17 5 -15 3 -14 -10 2 -16 20 -16 20 -12 -2 2 -13 -1 -23 -8 -23 -7 0 -6 -4 3
-10 11 -7 11 -10 2 -10 -7 0 -10 -4 -7 -10 3 -5 0 -10 -7 -10 -9 0 -9 -3 2
-10 12 -7 12 -10 1 -10 -7 0 -11 -6 -8 -13 3 -7 -3 -13 -13 -13 -10 0 -16 5
-13 11 3 5 0 4 -8 -2 -18 -18 -29 -16 -29 3 0 10 -5 14 -16 10 -8 -3 -12 -2
-9 4 4 6 -5 10 -20 10 -19 0 -26 4 -22 14 4 10 -1 12 -16 9 -18 -4 -19 -3 -7
6 13 9 12 11 -3 11 -21 0 -47 22 -48 42 0 7 -4 4 -9 -7 -7 -16 -9 -17 -9 -3
-1 9 -10 20 -21 23 -11 3 -20 13 -20 21 0 8 -4 12 -10 9 -5 -3 -10 1 -10 9 0
8 -5 18 -12 22 -7 5 -8 3 -3 -6 5 -9 4 -11 -4 -6 -6 4 -9 12 -5 17 3 5 0 16
-6 24 -10 12 -10 15 0 15 7 0 10 7 6 15 -3 8 -2 14 2 12 4 -1 33 23 64 53 76
73 91 85 100 82 5 -1 8 3 8 9 0 5 5 7 12 3 8 -5 9 -2 5 9 -3 10 -2 18 3 18 11
2 26 5 38 9 4 1 11 2 15 1 5 -1 6 3 3 8 -4 5 7 16 24 25 20 9 28 10 24 3 -3
-7 4 -1 15 12 12 13 24 21 27 18 4 -3 13 0 21 8 17 18 37 20 27 3 -4 -7 -3 -8
5 -4 6 4 9 11 6 16 -3 4 3 14 12 21 12 10 14 10 9 2 -4 -7 -3 -13 3 -13 5 0
13 5 16 10 4 6 11 8 16 5 5 -4 9 -1 9 4 0 6 5 11 11 11 5 0 7 -5 3 -12 -4 -7
-3 -8 4 -4 7 4 12 15 12 24 0 15 2 15 10 2 7 -12 10 -12 10 -1 0 7 6 11 15 7
8 -3 15 -1 15 4 0 6 13 8 30 5 18 -3 30 -1 30 5 0 7 5 8 13 3 6 -4 15 -8 20
-9z m127 -18 c0 -2 -8 -10 -17 -17 -16 -13 -17 -12 -4 4 13 16 21 21 21 13z
m-864 -445 c-3 -5 1 -12 10 -15 11 -4 15 -2 11 8 -6 15 17 16 30 1 4 -4 1 -5
-7 0 -8 4 -6 -1 5 -13 11 -12 26 -28 34 -37 7 -9 20 -14 28 -10 14 5 14 3 2
-12 -9 -11 -10 -14 -2 -9 14 8 57 -17 46 -27 -3 -4 1 -7 11 -7 9 0 14 -4 11
-10 -3 -5 3 -10 14 -10 12 0 21 -4 21 -10 0 -5 7 -7 15 -4 11 5 13 2 9 -10 -6
-15 7 -20 52 -19 6 0 11 -6 11 -13 0 -7 -5 -10 -10 -7 -6 3 -7 1 -3 -6 6 -9
11 -9 24 1 12 10 14 10 8 1 -5 -9 0 -13 14 -13 14 0 19 -4 14 -12 -5 -8 -2 -9
11 -4 18 6 18 6 -1 -15 -18 -22 -18 -22 0 -15 16 5 17 4 6 -9 -7 -8 -17 -12
-24 -8 -6 4 -5 -1 3 -10 7 -9 9 -17 4 -17 -6 0 -9 -13 -7 -30 3 -23 0 -30 -14
-30 -15 0 -15 -2 -2 -11 11 -8 12 -12 3 -16 -20 -7 -15 -23 5 -17 16 5 16 5 0
-9 -12 -9 -14 -17 -7 -24 8 -8 7 -13 -2 -18 -8 -6 -10 -4 -4 6 7 12 6 12 -6 0
-11 -10 -11 -15 -2 -18 9 -3 10 -10 3 -23 -7 -13 -7 -21 1 -26 9 -5 8 -10 -2
-18 -16 -13 -19 -48 -4 -58 6 -5 4 -8 -5 -8 -13 0 -13 -1 0 -10 10 -6 11 -10
2 -10 -6 0 -11 -3 -11 -7 4 -23 -4 -31 -31 -35 -17 -3 -33 -1 -36 4 -3 5 -12
4 -19 -2 -10 -8 -15 -8 -20 0 -5 8 -10 8 -20 0 -10 -8 -15 -8 -20 0 -5 8 -10
8 -20 0 -10 -8 -15 -8 -20 0 -5 8 -10 8 -20 0 -10 -8 -15 -8 -20 0 -5 8 -10 8
-20 0 -10 -8 -15 -8 -20 0 -5 8 -10 8 -20 0 -10 -8 -15 -8 -20 0 -5 8 -10 8
-20 0 -10 -8 -15 -8 -20 0 -5 8 -10 8 -20 0 -10 -8 -15 -8 -20 0 -5 8 -10 8
-20 0 -10 -8 -15 -8 -20 0 -5 8 -10 8 -20 0 -9 -8 -15 -8 -20 0 -3 6 -10 8
-15 5 -4 -3 -15 -3 -23 1 -11 4 -14 23 -13 78 1 46 5 72 11 69 6 -2 11 7 12
19 2 18 0 19 -7 8 -7 -11 -9 -10 -7 8 1 13 6 21 13 18 8 -3 11 3 8 20 -3 14
-1 23 3 21 5 -3 8 14 8 39 -1 34 2 44 14 44 13 0 13 2 3 9 -11 6 -10 10 3 15
15 5 15 9 4 23 -8 9 -9 14 -3 10 14 -8 27 20 17 36 -4 7 0 8 12 3 14 -5 16 -4
7 7 -9 10 -7 18 6 33 17 20 24 37 25 61 0 10 4 10 14 1 11 -8 12 -7 7 6 -3 9
-1 16 4 16 6 0 9 9 7 20 -2 12 3 21 16 25 11 4 17 10 14 15 -3 4 2 13 10 20
18 15 20 34 3 24 -9 -5 -9 -2 1 9 14 18 26 23 17 8z m1999 0 c-7 -12 25 -72
35 -66 10 6 12 -1 13 -42 0 -14 5 -19 14 -16 9 4 11 0 6 -13 -4 -12 -3 -15 5
-10 12 7 16 -5 13 -32 -1 -7 5 -15 14 -18 9 -4 14 -13 11 -20 -3 -7 0 -16 6
-20 7 -5 8 -2 3 6 -5 8 -4 11 3 6 6 -4 8 -14 5 -22 -3 -9 0 -20 8 -25 10 -6
10 -9 2 -9 -7 0 -13 -5 -13 -11 0 -5 5 -7 12 -3 8 5 9 2 5 -10 -4 -10 1 -24
13 -36 13 -13 15 -20 8 -21 -10 0 -10 -2 -1 -5 7 -3 9 -12 6 -20 -3 -8 0 -14
7 -14 10 0 10 -3 1 -14 -10 -12 -8 -17 9 -26 21 -11 21 -12 4 -31 -9 -10 -14
-22 -11 -26 4 -3 7 -1 7 5 0 7 5 12 11 12 6 0 8 -9 4 -21 -6 -16 -4 -20 6 -13
10 6 10 3 -1 -11 -8 -10 -10 -16 -5 -13 6 4 10 -18 11 -58 1 -55 -2 -64 -18
-70 -11 -3 -22 -3 -25 0 -3 3 -14 1 -24 -5 -11 -5 -19 -6 -19 -1 0 10 -92 8
-109 -2 -6 -4 -11 -3 -11 2 0 10 -92 8 -109 -2 -6 -4 -11 -3 -11 2 0 10 -92 8
-109 -2 -6 -4 -11 -2 -11 4 0 7 -8 9 -20 5 -11 -3 -29 -4 -40 0 -16 5 -19 14
-17 46 2 23 -1 39 -7 39 -6 0 -5 4 2 9 10 6 10 10 -2 20 -13 11 -13 17 -4 35
12 23 12 24 -5 45 -7 9 -8 12 -1 8 6 -3 11 0 11 8 0 8 -4 12 -8 10 -3 -3 -9 4
-12 15 -3 11 -1 18 4 14 5 -3 6 2 3 10 -3 9 -9 14 -13 11 -4 -2 -8 2 -8 10 0
8 4 12 9 9 4 -3 8 0 8 5 0 6 -5 11 -11 11 -6 0 -9 9 -6 20 3 11 1 20 -3 20 -4
0 -6 9 -3 20 3 12 0 20 -7 20 -9 0 -10 3 -1 13 6 8 8 17 5 20 -3 3 3 15 14 27
13 14 22 18 27 11 3 -6 11 -9 16 -5 5 3 7 9 4 14 -3 4 3 14 12 21 12 10 14 10
9 2 -8 -15 -5 -16 18 -7 9 3 16 12 16 20 0 13 12 18 33 15 4 0 7 6 7 14 0 9 6
12 17 8 12 -5 14 -3 8 7 -6 10 -4 12 9 7 10 -4 15 -3 11 3 -3 6 1 10 10 10 10
0 13 5 9 12 -5 8 -2 9 10 5 9 -4 15 -3 12 2 -3 5 6 16 20 26 14 9 23 19 20 22
-12 13 25 39 53 39 17 0 28 -2 26 -5z m-1505 -276 c4 2 18 -4 30 -15 25 -22
35 -26 25 -10 -3 6 -1 10 4 10 6 0 11 -4 11 -9 0 -5 20 -8 45 -7 25 1 45 -1
45 -6 0 -4 7 -4 17 -1 12 5 14 3 8 -7 -6 -10 -4 -12 8 -7 10 3 17 2 17 -4 0
-6 5 -7 10 -4 6 4 8 11 5 16 -3 5 1 6 10 2 12 -4 13 -8 5 -13 -8 -5 -4 -9 9
-13 12 -3 21 0 21 5 0 6 6 5 15 -2 12 -10 15 -9 16 6 0 15 2 16 7 4 5 -12 23
-15 74 -14 74 1 79 -3 73 -60 -2 -20 1 -36 7 -36 5 0 6 -5 2 -11 -11 -19 -12
-109 0 -109 6 0 4 -5 -4 -10 -12 -8 -12 -10 -1 -10 9 0 10 -4 3 -12 -5 -7 -8
-23 -6 -35 5 -29 -23 -58 -41 -43 -10 8 -15 8 -20 0 -5 -8 -10 -8 -20 0 -10 8
-15 8 -20 0 -5 -8 -10 -8 -20 0 -10 8 -15 8 -20 0 -5 -8 -10 -8 -20 0 -10 8
-15 8 -20 0 -5 -8 -10 -8 -20 0 -10 8 -15 8 -20 0 -5 -8 -10 -8 -20 0 -10 8
-15 8 -20 0 -5 -8 -10 -8 -20 0 -10 8 -15 8 -20 0 -5 -8 -10 -8 -20 0 -10 8
-15 8 -20 0 -5 -8 -10 -8 -20 0 -10 8 -15 8 -20 0 -5 -8 -10 -8 -20 0 -9 8
-15 8 -20 0 -3 -6 -12 -7 -18 -3 -6 4 -37 7 -67 6 l-56 -1 -1 49 c-1 27 2 47
7 44 9 -6 8 14 -2 30 -8 14 -4 53 7 62 4 5 5 2 0 -6 -6 -10 -4 -12 4 -7 9 6 9
11 1 21 -8 9 -6 17 5 29 12 12 13 16 3 17 -10 0 -10 2 0 6 10 4 10 8 1 19 -9
12 -9 13 2 9 11 -4 14 4 12 35 -1 29 1 39 10 33 7 -4 6 0 -2 10 -12 15 -9 21
11 18 4 0 4 7 1 17 -6 15 -5 15 11 3 9 -8 16 -10 15 -5 -3 17 3 29 8 16 2 -6
8 -10 13 -7z m1024 3 c-3 -4 4 -8 16 -8 12 0 18 -4 15 -10 -3 -5 -1 -10 4 -10
6 0 11 -5 11 -11 0 -5 -4 -7 -10 -4 -5 3 -3 -10 5 -30 10 -22 11 -35 5 -35 -7
0 -8 -6 -1 -19 6 -10 7 -22 3 -26 -4 -5 1 -5 10 -2 12 4 16 1 13 -13 -2 -11 0
-22 4 -24 9 -6 8 -37 -3 -54 -4 -6 -4 -12 1 -12 4 0 9 -11 9 -26 2 -23 1 -24
-13 -7 -14 16 -14 16 -1 -7 17 -31 23 -90 9 -91 -21 -3 -26 -4 -38 -12 -8 -5
-13 -3 -13 5 0 9 -3 9 -10 -2 -5 -8 -10 -10 -10 -4 0 12 -90 11 -109 0 -6 -4
-11 -3 -11 2 0 10 -92 8 -109 -2 -6 -4 -11 -3 -11 2 0 10 -92 8 -109 -2 -6 -4
-11 -3 -11 2 0 10 -70 9 -88 -2 -6 -4 -12 -2 -12 3 0 6 -7 11 -15 11 -10 0
-14 9 -11 30 2 16 1 32 -2 35 -8 8 -10 45 -3 40 4 -2 6 40 5 93 -1 53 2 102 6
107 11 13 79 13 99 1 9 -6 12 -5 7 2 -3 6 -2 13 4 17 5 3 10 0 10 -7 0 -9 3
-9 10 2 9 13 10 13 10 0 0 -13 1 -13 10 0 7 11 10 11 10 2 0 -9 5 -10 19 -2
14 7 22 7 26 0 8 -13 25 -3 25 13 0 7 -4 6 -10 -3 -6 -9 -10 -10 -10 -3 0 19
19 26 26 10 7 -20 30 -16 49 9 8 10 15 14 15 8 0 -6 7 -11 15 -11 8 0 12 4 9
9 -3 5 6 6 20 2 18 -4 26 -2 26 7 0 11 3 11 10 -1 7 -11 10 -11 10 -2 0 7 5
10 11 7 6 -4 17 1 24 12 12 17 59 28 49 11z m-1624 -483 c37 1 71 5 78 9 7 4
12 3 12 -1 0 -11 131 -9 148 1 7 4 12 3 12 -2 0 -10 82 -8 98 2 6 3 13 2 16
-3 3 -5 15 -7 25 -4 16 4 19 -1 17 -41 -1 -25 1 -46 4 -46 4 0 5 -13 2 -30 -3
-19 0 -30 7 -30 7 0 9 -5 6 -10 -4 -6 -12 -8 -18 -4 -7 3 -1 -5 13 -17 16 -14
19 -20 8 -16 -10 3 -20 2 -23 -4 -4 -5 -1 -8 6 -7 7 2 13 -2 14 -9 0 -6 3 -15
7 -19 4 -4 2 -14 -5 -22 -8 -11 -8 -14 0 -9 6 4 14 3 18 -3 3 -5 -2 -10 -12
-11 -16 0 -16 -1 2 -9 11 -5 17 -9 13 -9 -4 -1 -3 -12 2 -26 7 -17 6 -25 -1
-25 -7 0 -6 -6 2 -16 8 -9 12 -29 11 -43 -2 -21 -1 -23 8 -11 10 13 11 13 7 0
-2 -8 -9 -16 -15 -16 -7 -1 -16 -2 -22 -3 -5 0 -10 -9 -11 -18 0 -10 -3 -13
-5 -6 -4 8 -11 6 -25 -8 -10 -10 -26 -19 -35 -19 -8 0 -12 -5 -9 -10 4 -6 3
-10 -2 -9 -21 4 -34 -2 -27 -13 5 -7 2 -9 -9 -5 -8 3 -21 -1 -27 -8 -7 -8 -16
-12 -21 -9 -5 3 -6 -3 -2 -12 4 -11 2 -15 -4 -11 -6 4 -14 0 -17 -9 -4 -9 -13
-14 -22 -10 -8 3 -13 2 -10 -3 3 -5 -6 -16 -19 -25 -14 -9 -23 -21 -20 -26 5
-9 -2 -12 -21 -9 -3 0 -16 -7 -29 -15 -23 -15 -24 -15 -18 1 4 10 2 14 -4 10
-10 -7 -29 38 -24 57 1 5 -5 4 -13 -4 -14 -10 -16 -9 -16 7 0 10 -6 25 -12 32
-11 11 -10 13 2 7 8 -4 4 2 -10 14 -14 13 -24 29 -22 36 2 8 -3 14 -10 14 -9
0 -9 3 2 10 13 8 13 10 -2 10 -12 0 -15 5 -11 17 4 10 2 14 -5 9 -6 -3 -13 -2
-17 4 -3 5 -2 10 3 10 5 0 9 7 9 15 0 8 -4 12 -8 10 -4 -3 -9 2 -13 10 -3 8 0
15 7 16 7 0 2 5 -10 11 -27 13 -31 30 -5 22 9 -3 6 2 -8 10 -14 8 -19 15 -12
16 9 0 10 5 4 18 -5 9 -9 29 -8 44 1 14 -3 24 -8 21 -5 -4 -7 3 -3 16 4 17 2
20 -7 12 -8 -7 -12 -5 -12 9 0 10 4 16 8 14 15 -10 8 9 -9 23 -17 14 -17 14 1
9 16 -5 17 -4 7 8 -7 8 -9 21 -5 27 4 7 3 9 -3 6 -6 -4 -10 15 -10 48 0 44 4
55 21 63 12 5 23 6 26 3 3 -4 34 -6 70 -6z m640 0 c37 1 71 5 78 9 7 4 12 3
12 -1 0 -11 131 -9 148 1 7 4 12 3 12 -1 0 -5 22 -8 49 -8 30 0 47 4 43 10 -4
7 -1 6 9 0 8 -6 26 -10 41 -9 l27 1 -3 -83 c-2 -55 1 -84 8 -84 6 0 4 -5 -4
-10 -12 -8 -12 -10 -1 -10 9 0 10 -4 4 -12 -5 -7 -8 -36 -8 -65 1 -30 -3 -54
-9 -56 -6 -2 -39 -4 -73 -3 -35 1 -59 -2 -56 -7 3 -5 -4 -4 -16 2 -16 9 -21 9
-21 -1 0 -9 -3 -9 -10 2 -6 9 -10 10 -10 3 0 -7 -10 -17 -21 -24 -15 -8 -19
-8 -15 0 4 6 2 11 -4 11 -6 0 -8 5 -4 12 4 7 3 8 -5 4 -6 -4 -9 -11 -6 -16 3
-5 0 -12 -6 -16 -7 -4 -9 -3 -5 4 3 6 2 13 -4 17 -5 3 -10 -1 -10 -10 0 -9 -4
-13 -10 -10 -5 3 -16 3 -22 -2 -7 -4 -24 -8 -38 -8 -14 0 -31 -5 -39 -9 -10
-6 -12 -5 -7 2 4 7 2 12 -3 12 -6 0 -11 -4 -11 -10 0 -5 -12 -8 -27 -7 -14 1
-28 -4 -30 -10 -3 -7 0 -13 7 -13 6 0 9 4 6 8 -3 5 2 9 10 9 13 0 13 -2 0 -16
-12 -12 -18 -12 -28 -3 -14 14 -32 16 -23 2 10 -16 -1 -11 -16 7 -12 14 -12
16 1 9 8 -4 6 0 -4 8 -15 12 -16 16 -5 16 9 0 10 3 3 8 -7 4 -11 28 -10 54 0
25 -1 45 -3 42 -2 -2 -9 4 -16 13 -14 19 -8 66 8 56 6 -3 7 -1 3 6 -6 9 -11 9
-22 0 -9 -7 -14 -8 -14 -1 0 6 5 14 10 17 6 4 8 11 5 16 -11 17 -14 50 -4 44
5 -4 9 -1 9 4 0 6 -4 11 -9 11 -5 0 -12 7 -15 16 -3 8 -2 13 3 10 5 -3 8 9 6
28 -3 31 -1 34 20 31 13 -1 29 2 37 6 7 4 15 5 18 1 3 -4 34 -7 70 -7z m608
-1 c6 -1 12 3 12 9 0 8 3 7 9 -1 4 -8 12 -14 16 -14 4 0 12 6 16 14 5 7 9 9 9
3 0 -6 27 -10 59 -10 33 0 58 2 56 6 -2 3 6 4 18 3 12 -1 22 -3 22 -4 0 -1 8
-3 18 -5 9 -2 17 2 17 8 0 8 3 7 9 -1 11 -17 21 -17 32 0 5 7 9 8 9 2 0 -6 26
-9 69 -8 47 2 74 -1 87 -11 11 -8 14 -15 8 -15 -6 0 -9 -13 -6 -30 3 -18 0
-30 -7 -30 -6 0 -11 -5 -11 -11 0 -5 6 -7 13 -3 8 5 8 2 -2 -9 -11 -14 -11
-17 0 -17 11 0 11 -2 -1 -10 -13 -9 -13 -10 0 -10 12 0 13 -2 1 -9 -8 -6 -12
-19 -9 -35 4 -18 0 -30 -11 -36 -11 -6 -12 -9 -3 -10 7 0 10 -5 7 -10 -4 -6
-9 -8 -13 -6 -9 5 -7 -68 1 -82 4 -5 0 -15 -8 -22 -8 -7 -13 -16 -10 -20 3 -4
-3 -14 -12 -21 -14 -12 -16 -12 -9 0 7 10 3 12 -14 6 -16 -5 -20 -4 -15 5 6 9
3 9 -11 2 -14 -7 -22 -6 -31 3 -10 10 -10 14 -1 17 7 3 -11 4 -40 3 -29 -1
-52 2 -52 7 0 5 -10 3 -22 -3 -21 -11 -22 -11 -9 5 13 15 12 16 -14 6 -26 -10
-27 -9 -14 7 9 10 9 14 2 9 -7 -4 -23 -2 -35 4 -22 10 -22 10 -4 -4 18 -14 18
-15 -3 -13 -11 1 -21 5 -21 10 0 5 -11 7 -25 5 -13 -3 -22 -1 -19 3 3 5 0 9
-5 9 -6 0 -11 -5 -11 -12 0 -9 -3 -9 -12 0 -15 15 -31 16 -22 0 5 -7 3 -8 -7
-2 -8 5 -27 9 -44 10 -64 3 -63 2 -61 39 1 19 -3 35 -9 35 -5 0 -4 4 3 9 8 4
14 12 14 16 0 4 -6 12 -14 16 -8 6 -9 9 -1 9 6 0 10 8 8 18 -2 9 -4 17 -5 17
-1 0 -3 10 -4 22 -1 12 0 20 4 18 4 -2 6 20 4 49 -3 58 6 82 28 73 8 -3 21 -1
28 3 8 5 19 6 25 2 5 -3 16 -7 23 -8z m697 6 c0 -1 8 -3 18 -5 9 -2 17 2 17 8
0 8 3 7 9 -1 4 -8 12 -14 16 -14 4 0 12 6 16 14 5 7 9 9 9 3 0 -6 27 -10 59
-10 33 0 58 2 56 6 -4 5 36 4 43 -1 8 -7 28 -4 34 5 5 7 8 6 8 -1 0 -7 14 -10
40 -7 22 3 41 1 41 -4 7 -43 3 -123 -5 -123 -6 0 -4 -5 4 -10 8 -5 10 -10 3
-10 -6 0 -10 -11 -8 -25 1 -14 -2 -28 -8 -32 -6 -3 -7 -1 -3 5 5 8 2 10 -9 6
-14 -6 -14 -8 2 -19 17 -13 17 -14 0 -21 -15 -5 -16 -9 -5 -15 10 -7 10 -9 -2
-9 -13 0 -13 -1 0 -10 8 -5 10 -10 3 -10 -6 0 -10 -11 -8 -25 1 -17 -3 -25
-14 -25 -13 0 -13 -2 -3 -9 11 -7 11 -9 -2 -14 -9 -4 -13 -13 -10 -22 4 -8 1
-15 -6 -15 -7 0 -10 -6 -7 -14 3 -7 -6 -32 -19 -56 -13 -23 -22 -45 -20 -48 2
-4 -6 -16 -17 -27 -11 -11 -16 -14 -12 -6 5 9 4 12 -3 8 -5 -4 -8 -17 -4 -29
4 -16 2 -19 -8 -13 -10 6 -12 4 -8 -7 4 -8 -2 -21 -13 -29 -10 -7 -19 -21 -19
-30 0 -9 -7 -22 -15 -29 -20 -17 -75 16 -70 42 2 10 0 16 -5 13 -5 -3 -16 5
-26 17 -11 15 -14 17 -11 6 4 -10 2 -18 -3 -18 -9 0 -14 21 -12 41 1 4 -8 5
-18 2 -15 -4 -20 0 -20 16 0 11 -3 20 -7 20 -31 -5 -55 3 -50 15 4 11 1 13
-10 9 -12 -5 -14 -3 -8 7 6 10 3 12 -13 8 -12 -4 -25 -1 -29 4 -4 7 -1 8 7 3
9 -5 11 -4 6 3 -4 7 -16 12 -28 12 -13 0 -18 5 -15 14 4 10 1 13 -8 10 -8 -3
-23 1 -35 9 -17 12 -18 16 -6 20 9 3 13 16 12 31 -2 14 2 26 8 26 7 0 7 3 -1
8 -10 6 -9 14 2 35 8 15 9 27 4 27 -6 0 -7 5 -4 10 5 8 12 7 23 -2 13 -11 13
-8 -2 14 -12 19 -14 27 -5 30 15 5 21 38 8 38 -5 0 -2 16 6 36 14 34 14 35 -2
23 -15 -13 -15 -12 -5 7 6 11 11 29 11 40 0 10 2 35 3 54 l3 35 57 -1 c31 0
55 3 53 6 -2 4 6 5 18 4 12 -1 22 -3 22 -4z m-2115 -180 c0 -5 -5 -10 -11 -10
-5 0 -7 5 -4 10 3 6 8 10 11 10 2 0 4 -4 4 -10z m1945 -40 c3 -5 1 -10 -4 -10
-6 0 -11 5 -11 10 0 6 2 10 4 10 3 0 8 -4 11 -10z m-516 -204 c11 -8 13 -8 7
2 -4 6 -3 12 1 12 5 0 15 -6 22 -12 8 -8 11 -8 8 -2 -4 7 3 12 19 12 16 0 23
-5 21 -13 -3 -6 1 -12 9 -12 7 0 11 4 9 8 -3 4 4 5 15 2 11 -3 20 -10 20 -16
0 -8 4 -7 11 0 9 9 17 8 34 -3 16 -11 25 -12 30 -4 5 8 11 8 21 -1 11 -9 14
-8 14 2 0 12 2 12 9 0 5 -8 14 -10 21 -6 8 5 11 4 7 -2 -4 -6 0 -14 9 -17 8
-3 13 -2 10 2 -2 4 4 8 14 8 15 0 17 -3 7 -15 -10 -12 -8 -14 10 -9 16 4 20 2
16 -10 -5 -11 -3 -13 7 -7 8 5 11 3 8 -6 -3 -8 -12 -13 -20 -13 -8 1 -15 -5
-15 -12 0 -7 4 -11 9 -8 4 3 8 0 8 -5 0 -6 -5 -11 -11 -11 -5 0 -7 -5 -4 -10
4 -6 1 -17 -5 -25 -6 -8 -9 -18 -6 -23 3 -6 -1 -9 -10 -8 -12 1 -17 -9 -19
-38 -1 -24 -10 -46 -21 -56 -10 -8 -20 -22 -22 -30 -2 -8 -10 -20 -18 -26 -8
-7 -17 -22 -19 -34 -2 -13 -14 -29 -25 -37 -11 -8 -18 -19 -15 -24 4 -5 -5
-20 -19 -34 -14 -14 -27 -29 -28 -33 -2 -4 -6 -6 -10 -5 -4 2 -4 -5 -1 -14 4
-9 2 -14 -3 -11 -5 3 -14 0 -21 -7 -10 -11 -10 -15 0 -18 7 -3 4 -6 -6 -6 -10
-1 -16 -5 -12 -10 3 -5 -4 -12 -15 -16 -11 -4 -18 -11 -14 -16 3 -6 -3 -13
-14 -16 -13 -3 -19 -11 -17 -23 3 -13 -1 -17 -11 -13 -8 3 -14 0 -14 -7 0 -6
-4 -8 -10 -5 -6 3 -10 -4 -10 -16 0 -12 -3 -20 -6 -16 -7 7 -34 -17 -34 -30 0
-5 -8 -9 -19 -9 -12 0 -18 7 -16 21 0 11 -1 24 -4 30 -7 14 -9 45 -2 40 4 -2
6 23 6 56 0 32 -4 59 -10 59 -5 0 -4 4 3 9 17 11 17 21 0 32 -8 6 -9 9 -1 9 6
0 10 8 8 18 -2 9 -4 17 -5 17 -1 0 -3 10 -4 22 -1 12 0 20 3 18 4 -2 6 23 6
56 0 32 -4 59 -10 59 -5 0 -4 4 3 9 8 4 14 12 14 16 0 4 -6 12 -14 16 -8 6 -9
9 -1 9 6 0 10 8 8 18 -2 9 -4 17 -5 17 -1 0 -3 10 -4 22 -1 12 0 20 3 18 4 -2
6 41 5 96 -1 54 2 97 6 94 5 -3 11 -2 14 3 7 11 77 2 95 -12z m-413 5 c-3 -5
1 -12 10 -15 8 -3 12 -2 9 3 -3 5 0 13 6 17 6 3 15 0 20 -7 6 -10 9 -11 9 -1
0 6 5 12 11 12 5 0 7 -4 4 -10 -3 -5 -1 -10 4 -10 6 0 11 5 11 10 0 16 109 12
125 -4 8 -7 11 -17 8 -20 -10 -10 -11 -86 -1 -86 5 0 6 -5 2 -11 -10 -17 -12
-109 -2 -109 5 0 6 -5 2 -11 -10 -17 -12 -109 -2 -109 5 0 6 -5 2 -11 -10 -17
-12 -109 -2 -109 5 0 6 -5 2 -11 -10 -17 -12 -109 -1 -109 5 0 3 -8 -4 -17
-12 -15 -12 -16 1 -8 12 7 13 6 4 -6 -5 -8 -9 -32 -8 -54 4 -58 -3 -84 -23
-81 -9 2 -19 9 -22 17 -2 7 -14 22 -25 32 -12 10 -15 15 -7 11 9 -5 12 -3 7 5
-4 6 -12 9 -17 6 -5 -4 -12 1 -15 9 -3 9 -10 13 -15 10 -5 -3 -9 0 -9 7 0 13
-5 19 -62 78 -18 19 -26 31 -18 27 8 -4 6 0 -4 8 -11 9 -23 16 -27 16 -4 0 -6
9 -4 19 3 18 -18 37 -37 33 -4 -1 -5 4 -2 12 3 8 0 17 -5 21 -6 3 -9 11 -6 16
3 5 -2 6 -11 2 -11 -4 -15 -3 -10 5 3 6 2 13 -4 17 -5 3 -10 15 -10 26 0 11
-7 22 -15 25 -8 4 -12 10 -9 15 3 5 0 9 -7 9 -6 0 -9 8 -6 19 3 15 0 19 -13
16 -12 -2 -17 2 -16 13 2 9 -4 23 -11 31 -12 11 -12 15 -1 22 10 7 10 10 -1
21 -12 11 -13 10 -7 -2 4 -8 -1 -4 -10 9 -17 22 -24 46 -25 83 0 10 -6 15 -14
12 -22 -9 -5 35 19 48 20 11 20 10 6 -8 -14 -17 -13 -18 1 -7 9 7 18 10 22 7
3 -3 3 5 1 18 -5 21 -4 21 6 5 11 -17 13 -17 29 -2 10 8 39 16 65 18 32 1 45
6 42 14 -6 13 19 7 43 -11 11 -8 13 -8 7 2 -7 11 -1 32 10 32 3 0 3 -4 0 -9z
m-362 -117 c11 -11 16 -12 16 -3 0 7 6 4 14 -6 8 -11 12 -23 9 -28 -2 -4 1
-14 7 -22 10 -12 10 -15 -1 -15 -10 -1 -9 -4 4 -14 9 -7 17 -21 17 -30 0 -9 5
-16 11 -16 6 0 9 -9 6 -20 -3 -12 0 -20 7 -20 11 0 39 -56 39 -77 0 -4 7 -14
16 -21 12 -10 13 -12 1 -6 -8 4 -5 -3 8 -16 13 -12 21 -29 18 -37 -4 -11 -2
-13 9 -10 18 7 30 -9 13 -16 -8 -4 -4 -8 10 -12 12 -4 22 -12 22 -17 0 -5 -4
-7 -8 -4 -5 3 -9 -1 -9 -9 0 -8 4 -12 8 -9 12 7 40 -26 32 -39 -4 -7 0 -8 11
-4 10 4 15 3 11 -3 -8 -12 20 -42 29 -32 4 3 4 -1 1 -10 -4 -9 0 -18 9 -21 9
-4 16 -14 16 -22 0 -10 5 -13 12 -9 8 5 9 2 5 -9 -3 -9 -3 -16 1 -16 28 4 34
-1 21 -18 -12 -14 -12 -16 0 -8 10 5 12 4 7 -3 -7 -11 7 -17 29 -12 6 1 6 -2
2 -7 -14 -13 -31 -10 -49 11 -17 18 -23 15 -18 -9 1 -5 -7 -2 -17 7 -10 8 -32
15 -50 14 -17 0 -29 2 -26 7 5 8 -38 27 -49 20 -5 -2 -8 1 -8 7 0 6 -8 10 -17
9 -32 -3 -44 1 -38 11 3 6 -3 10 -14 10 -12 0 -21 5 -21 11 0 5 -4 8 -9 4 -5
-3 -12 -1 -16 5 -4 6 -11 8 -16 5 -5 -4 -9 -1 -9 5 0 6 -4 8 -10 5 -5 -3 -10
1 -10 10 0 9 -4 13 -10 10 -5 -3 -10 -2 -10 4 0 5 -9 8 -19 6 -12 -2 -21 3
-24 16 -3 11 -11 18 -19 17 -7 -2 -12 3 -10 11 2 11 0 12 -11 3 -17 -14 -28
-6 -20 14 3 8 2 14 -3 12 -19 -5 -54 14 -54 29 0 10 -6 13 -17 9 -10 -4 -14
-4 -11 0 4 3 -7 18 -23 31 -17 15 -28 32 -25 40 3 8 2 11 -3 8 -5 -3 -12 -1
-16 5 -4 6 -11 8 -16 5 -5 -4 -9 3 -9 14 0 12 -6 21 -12 21 -9 0 -8 4 2 10 13
9 13 10 0 11 -10 0 -11 2 -2 6 6 2 10 9 6 14 -3 5 0 9 6 9 6 0 8 5 4 13 -5 7
-2 7 10 -2 15 -12 17 -12 14 0 -2 8 3 13 9 12 7 -2 12 0 12 5 -1 4 -1 16 0 27
1 17 3 18 11 5 5 -8 10 -10 10 -4 0 7 12 15 27 19 21 5 24 8 12 16 -12 7 -11
9 4 9 9 0 17 4 17 9 0 10 65 51 81 51 6 0 7 -5 3 -12 -4 -7 -3 -8 5 -4 6 4 9
12 6 17 -6 8 9 13 29 10 5 -1 6 5 3 14 -8 19 -3 19 17 -1z m1211 -10 l-17 -26
31 23 31 22 18 -21 c11 -12 26 -22 34 -22 18 0 40 -23 33 -34 -3 -3 0 -2 6 3
13 11 47 -14 59 -44 l9 -20 0 20 c1 16 5 14 21 -12 11 -18 27 -33 35 -33 9 0
13 -4 10 -10 -3 -5 0 -10 8 -10 8 0 18 -7 21 -16 4 -10 2 -13 -7 -8 -8 5 -8 2
2 -9 7 -9 18 -14 25 -11 6 3 2 -2 -8 -10 -11 -9 -17 -16 -13 -16 4 0 -11 -18
-33 -40 -22 -22 -40 -44 -40 -50 0 -5 -7 -6 -17 -3 -11 4 -14 3 -9 -5 4 -7 1
-12 -8 -12 -8 0 -24 -12 -35 -26 -12 -15 -21 -24 -21 -20 0 4 -6 1 -14 -6 -8
-7 -12 -16 -10 -19 2 -4 -10 -9 -26 -13 -17 -3 -30 -12 -30 -20 0 -10 -6 -13
-17 -9 -12 5 -14 3 -8 -7 6 -10 4 -12 -8 -7 -10 4 -17 1 -17 -6 0 -8 -4 -6
-10 3 -8 13 -10 12 -10 -4 0 -11 -3 -17 -6 -13 -4 3 -13 -1 -21 -9 -8 -8 -19
-12 -24 -9 -5 4 -9 2 -9 -2 0 -10 -53 -43 -70 -43 -6 0 -8 6 -5 13 4 6 -1 3
-9 -7 -9 -11 -16 -16 -16 -12 0 5 -11 1 -25 -8 -14 -9 -31 -14 -37 -10 -8 5
-9 2 -5 -10 5 -12 3 -15 -6 -9 -22 13 -68 10 -62 -5 2 -7 0 -10 -5 -7 -6 3
-16 3 -22 -2 -21 -12 -37 -12 -45 0 -3 7 -3 9 2 5 10 -10 37 11 29 23 -3 5 0
9 7 9 7 0 10 3 7 6 -7 7 44 60 55 56 5 -1 6 1 3 6 -7 12 23 54 34 47 4 -3 7 3
6 13 0 10 5 16 13 14 12 -3 12 -1 0 14 -8 10 -9 15 -3 11 7 -4 15 1 18 10 6
15 8 15 16 3 7 -12 9 -11 9 5 1 50 4 55 20 42 10 -8 13 -9 8 0 -4 6 0 28 10
47 9 21 20 31 23 25 4 -6 9 -2 13 10 3 12 1 19 -4 15 -17 -10 -9 5 14 27 12
12 15 19 7 15 -9 -5 -9 -2 2 7 10 8 15 17 11 20 -3 4 -2 7 3 7 5 0 10 10 11
22 1 12 9 26 18 30 8 5 13 14 9 19 -3 5 -1 16 5 23 7 8 13 28 16 46 2 17 9 38
16 46 19 23 22 16 4 -12z m-1545 -123 c0 -5 -7 -12 -16 -15 -14 -5 -15 -4 -4
9 14 17 20 19 20 6z m1730 -235 c0 -2 -8 -10 -17 -17 -16 -13 -17 -12 -4 4 13
16 21 21 21 13z m-505 -325 c3 -5 2 -12 -3 -15 -5 -3 -9 1 -9 9 0 17 3 19 12
6z"/>
<path d="M950 2179 c0 -5 5 -7 10 -4 6 3 10 8 10 11 0 2 -4 4 -10 4 -5 0 -10
-5 -10 -11z"/>
<path d="M426 1912 c-3 -5 1 -9 9 -9 8 0 12 4 9 9 -3 4 -7 8 -9 8 -2 0 -6 -4
-9 -8z"/>
<path d="M2241 1997 c-8 -10 -7 -14 2 -14 8 0 14 6 14 14 0 7 -1 13 -2 13 -2
0 -8 -6 -14 -13z"/>
<path d="M2270 2006 c0 -2 7 -7 16 -10 8 -3 12 -2 9 4 -6 10 -25 14 -25 6z"/>
<path d="M2475 1550 c-3 -6 1 -7 9 -4 18 7 21 14 7 14 -6 0 -13 -4 -16 -10z"/>
<path d="M796 1722 c-3 -5 1 -9 9 -9 8 0 12 4 9 9 -3 4 -7 8 -9 8 -2 0 -6 -4
-9 -8z"/>
<path d="M700 1479 c0 -5 5 -7 10 -4 6 3 10 8 10 11 0 2 -4 4 -10 4 -5 0 -10
-5 -10 -11z"/>
<path d="M1786 1731 c-4 -5 -2 -12 3 -15 5 -4 12 -2 15 3 4 5 2 12 -3 15 -5 4
-12 2 -15 -3z"/>
<path d="M1876 1542 c-3 -5 1 -17 8 -27 12 -17 13 -17 11 3 -2 26 -11 37 -19
24z"/>
<path d="M715 1041 c-3 -5 -2 -12 3 -15 5 -3 9 1 9 9 0 17 -3 19 -12 6z"/>
<path d="M2275 600 c-3 -5 -1 -10 4 -10 6 0 11 5 11 10 0 6 -2 10 -4 10 -3 0
-8 -4 -11 -10z"/>
<path d="M1716 553 c-6 -14 -5 -15 5 -6 7 7 10 15 7 18 -3 3 -9 -2 -12 -12z"/>
<path d="M1549 113 c-13 -16 -12 -17 4 -4 16 13 21 21 13 21 -2 0 -10 -8 -17
-17z"/>
<path d="M1580 2591 c0 -6 4 -13 10 -16 6 -3 7 1 4 9 -7 18 -14 21 -14 7z"/>
<path d="M65 1749 c-4 -6 -5 -12 -2 -15 2 -3 7 2 10 11 7 17 1 20 -8 4z"/>
<path d="M747 109 c7 -7 15 -10 18 -7 3 3 -2 9 -12 12 -14 6 -15 5 -6 -5z"/>
</g>
</svg>
